<mxfile host="app.diagrams.net" modified="2022-09-02T16:10:16.187Z" agent="5.0 (Macintosh; Intel Mac OS X 10_15_7) AppleWebKit/537.36 (KHTML, like Gecko) Chrome/104.0.0.0 Safari/537.36" etag="_Ojmnutq8DqvOiWm9tl_" version="20.2.7" type="github" pages="6">
  <diagram id="R2lEEEUBdFMjLlhIrx00" name="DataLens V1">
    <mxGraphModel dx="1112" dy="686" grid="1" gridSize="10" guides="1" tooltips="1" connect="1" arrows="1" fold="1" page="1" pageScale="1" pageWidth="850" pageHeight="1100" math="0" shadow="0" extFonts="Permanent Marker^https://fonts.googleapis.com/css?family=Permanent+Marker">
      <root>
        <mxCell id="0" />
        <mxCell id="1" parent="0" />
        <mxCell id="d8AmTmTILv6SGkgznYFD-1" value="Project" style="swimlane;childLayout=stackLayout;horizontal=1;startSize=30;horizontalStack=0;rounded=1;fontSize=14;fontStyle=0;strokeWidth=2;resizeParent=0;resizeLast=1;shadow=0;dashed=0;align=center;" parent="1" vertex="1">
          <mxGeometry x="400" y="250" width="160" height="120" as="geometry" />
        </mxCell>
        <mxCell id="d8AmTmTILv6SGkgznYFD-2" value="+ID&#xa;+Name&#xa;+Description&#xa;+" style="align=left;strokeColor=none;fillColor=none;spacingLeft=4;fontSize=12;verticalAlign=top;resizable=0;rotatable=0;part=1;" parent="d8AmTmTILv6SGkgznYFD-1" vertex="1">
          <mxGeometry y="30" width="160" height="90" as="geometry" />
        </mxCell>
        <mxCell id="d8AmTmTILv6SGkgznYFD-3" value="Protocol" style="swimlane;childLayout=stackLayout;horizontal=1;startSize=30;horizontalStack=0;rounded=1;fontSize=14;fontStyle=0;strokeWidth=2;resizeParent=0;resizeLast=1;shadow=0;dashed=0;align=center;" parent="1" vertex="1">
          <mxGeometry x="140" y="70" width="160" height="130" as="geometry" />
        </mxCell>
        <mxCell id="d8AmTmTILv6SGkgznYFD-4" value="+ID&#xa;+IRBNumber&#xa;+ProjectTitle&#xa;+ProjectStatus&#xa;+StartDate&#xa;+EndDate" style="align=left;strokeColor=none;fillColor=none;spacingLeft=4;fontSize=12;verticalAlign=top;resizable=0;rotatable=0;part=1;" parent="d8AmTmTILv6SGkgznYFD-3" vertex="1">
          <mxGeometry y="30" width="160" height="100" as="geometry" />
        </mxCell>
        <mxCell id="d8AmTmTILv6SGkgznYFD-5" value="Personnel" style="swimlane;childLayout=stackLayout;horizontal=1;startSize=30;horizontalStack=0;rounded=1;fontSize=14;fontStyle=0;strokeWidth=2;resizeParent=0;resizeLast=1;shadow=0;dashed=0;align=center;" parent="1" vertex="1">
          <mxGeometry x="140" y="230" width="160" height="120" as="geometry" />
        </mxCell>
        <mxCell id="d8AmTmTILv6SGkgznYFD-6" value="+ID&#xa;+Name&#xa;+BlazerID&#xa;+ADUsername&#xa;+" style="align=left;strokeColor=none;fillColor=none;spacingLeft=4;fontSize=12;verticalAlign=top;resizable=0;rotatable=0;part=1;" parent="d8AmTmTILv6SGkgznYFD-5" vertex="1">
          <mxGeometry y="30" width="160" height="90" as="geometry" />
        </mxCell>
        <mxCell id="d8AmTmTILv6SGkgznYFD-7" value="Cohort" style="swimlane;childLayout=stackLayout;horizontal=1;startSize=30;horizontalStack=0;rounded=1;fontSize=14;fontStyle=0;strokeWidth=2;resizeParent=0;resizeLast=1;shadow=0;dashed=0;align=center;" parent="1" vertex="1">
          <mxGeometry x="140" y="380" width="160" height="150" as="geometry" />
        </mxCell>
        <mxCell id="d8AmTmTILv6SGkgznYFD-8" value="+ID&#xa;+SourceSystem&#xa;+Status&#xa;+Title&#xa;+ResultType&#xa;+" style="align=left;strokeColor=none;fillColor=none;spacingLeft=4;fontSize=12;verticalAlign=top;resizable=0;rotatable=0;part=1;" parent="d8AmTmTILv6SGkgznYFD-7" vertex="1">
          <mxGeometry y="30" width="160" height="120" as="geometry" />
        </mxCell>
        <mxCell id="d8AmTmTILv6SGkgznYFD-9" value="DataRequest" style="swimlane;childLayout=stackLayout;horizontal=1;startSize=30;horizontalStack=0;rounded=1;fontSize=14;fontStyle=0;strokeWidth=2;resizeParent=0;resizeLast=1;shadow=0;dashed=0;align=center;" parent="1" vertex="1">
          <mxGeometry x="140" y="570" width="160" height="150" as="geometry" />
        </mxCell>
        <mxCell id="d8AmTmTILv6SGkgznYFD-11" value="+ID&#xa;+Title&#xa;+Description&#xa;+Status&#xa;+Priority&#xa;+Assignee" style="align=left;strokeColor=none;fillColor=none;spacingLeft=4;fontSize=12;verticalAlign=top;resizable=0;rotatable=0;part=1;" parent="d8AmTmTILv6SGkgznYFD-9" vertex="1">
          <mxGeometry y="30" width="160" height="120" as="geometry" />
        </mxCell>
        <mxCell id="d8AmTmTILv6SGkgznYFD-12" value="Document" style="swimlane;childLayout=stackLayout;horizontal=1;startSize=30;horizontalStack=0;rounded=1;fontSize=14;fontStyle=0;strokeWidth=2;resizeParent=0;resizeLast=1;shadow=0;dashed=0;align=center;" parent="1" vertex="1">
          <mxGeometry x="400" y="600" width="160" height="120" as="geometry" />
        </mxCell>
        <mxCell id="d8AmTmTILv6SGkgznYFD-13" value="+ID&#xa;+Name&#xa;+" style="align=left;strokeColor=none;fillColor=none;spacingLeft=4;fontSize=12;verticalAlign=top;resizable=0;rotatable=0;part=1;" parent="d8AmTmTILv6SGkgznYFD-12" vertex="1">
          <mxGeometry y="30" width="160" height="90" as="geometry" />
        </mxCell>
        <mxCell id="d8AmTmTILv6SGkgznYFD-15" value="" style="edgeStyle=entityRelationEdgeStyle;fontSize=12;html=1;endArrow=ERzeroToMany;startArrow=ERzeroToMany;rounded=0;exitX=1;exitY=0.5;exitDx=0;exitDy=0;entryX=0.005;entryY=0.201;entryDx=0;entryDy=0;entryPerimeter=0;startFill=0;endFill=0;" parent="1" source="d8AmTmTILv6SGkgznYFD-3" target="d8AmTmTILv6SGkgznYFD-1" edge="1">
          <mxGeometry width="100" height="100" relative="1" as="geometry">
            <mxPoint x="390" y="430" as="sourcePoint" />
            <mxPoint x="490" y="330" as="targetPoint" />
          </mxGeometry>
        </mxCell>
        <mxCell id="d8AmTmTILv6SGkgznYFD-16" value="" style="edgeStyle=entityRelationEdgeStyle;fontSize=12;html=1;endArrow=ERzeroToMany;endFill=1;startArrow=ERzeroToMany;rounded=0;entryX=-0.008;entryY=0.119;entryDx=0;entryDy=0;exitX=1;exitY=0;exitDx=0;exitDy=0;entryPerimeter=0;" parent="1" source="d8AmTmTILv6SGkgznYFD-6" target="d8AmTmTILv6SGkgznYFD-2" edge="1">
          <mxGeometry width="100" height="100" relative="1" as="geometry">
            <mxPoint x="390" y="430" as="sourcePoint" />
            <mxPoint x="490" y="330" as="targetPoint" />
          </mxGeometry>
        </mxCell>
        <mxCell id="d8AmTmTILv6SGkgznYFD-17" value="" style="edgeStyle=entityRelationEdgeStyle;fontSize=12;html=1;endArrow=ERzeroToMany;endFill=1;startArrow=ERzeroToMany;rounded=0;exitX=0.996;exitY=0.121;exitDx=0;exitDy=0;exitPerimeter=0;entryX=0;entryY=0.25;entryDx=0;entryDy=0;" parent="1" source="d8AmTmTILv6SGkgznYFD-8" target="d8AmTmTILv6SGkgznYFD-2" edge="1">
          <mxGeometry width="100" height="100" relative="1" as="geometry">
            <mxPoint x="390" y="500" as="sourcePoint" />
            <mxPoint x="490" y="400" as="targetPoint" />
          </mxGeometry>
        </mxCell>
        <mxCell id="d8AmTmTILv6SGkgznYFD-19" value="" style="edgeStyle=entityRelationEdgeStyle;fontSize=12;html=1;endArrow=ERzeroToMany;startArrow=ERmandOne;rounded=0;exitX=0;exitY=0.5;exitDx=0;exitDy=0;endFill=0;entryX=1;entryY=0;entryDx=0;entryDy=0;" parent="1" source="d8AmTmTILv6SGkgznYFD-2" target="d8AmTmTILv6SGkgznYFD-11" edge="1">
          <mxGeometry width="100" height="100" relative="1" as="geometry">
            <mxPoint x="330" y="540" as="sourcePoint" />
            <mxPoint x="330" y="580" as="targetPoint" />
          </mxGeometry>
        </mxCell>
        <mxCell id="d8AmTmTILv6SGkgznYFD-20" value="" style="edgeStyle=entityRelationEdgeStyle;fontSize=12;html=1;endArrow=ERzeroToMany;startArrow=ERmandOne;rounded=0;exitX=1;exitY=0.25;exitDx=0;exitDy=0;entryX=0;entryY=0.25;entryDx=0;entryDy=0;" parent="1" source="d8AmTmTILv6SGkgznYFD-11" target="d8AmTmTILv6SGkgznYFD-13" edge="1">
          <mxGeometry width="100" height="100" relative="1" as="geometry">
            <mxPoint x="320" y="560" as="sourcePoint" />
            <mxPoint x="420" y="460" as="targetPoint" />
          </mxGeometry>
        </mxCell>
        <mxCell id="d8AmTmTILv6SGkgznYFD-21" value="Asset" style="swimlane;childLayout=stackLayout;horizontal=1;startSize=30;horizontalStack=0;rounded=1;fontSize=14;fontStyle=0;strokeWidth=2;resizeParent=0;resizeLast=1;shadow=0;dashed=0;align=center;" parent="1" vertex="1">
          <mxGeometry x="640" y="250" width="160" height="190" as="geometry" />
        </mxCell>
        <mxCell id="d8AmTmTILv6SGkgznYFD-22" value="+ID&#xa;+AssetCategory&#xa;+AssetType&#xa;+AssetName&#xa;+AssetDescription&#xa;+UBRITEURI&#xa;+Path&#xa;+Version&#xa;+Owner" style="align=left;strokeColor=none;fillColor=none;spacingLeft=4;fontSize=12;verticalAlign=top;resizable=0;rotatable=0;part=1;" parent="d8AmTmTILv6SGkgznYFD-21" vertex="1">
          <mxGeometry y="30" width="160" height="160" as="geometry" />
        </mxCell>
        <mxCell id="d8AmTmTILv6SGkgznYFD-23" value="" style="edgeStyle=entityRelationEdgeStyle;fontSize=12;html=1;endArrow=ERzeroToMany;endFill=1;startArrow=ERzeroToMany;rounded=0;entryX=0;entryY=0.303;entryDx=0;entryDy=0;entryPerimeter=0;exitX=1;exitY=0.25;exitDx=0;exitDy=0;" parent="1" source="d8AmTmTILv6SGkgznYFD-2" target="d8AmTmTILv6SGkgznYFD-22" edge="1">
          <mxGeometry width="100" height="100" relative="1" as="geometry">
            <mxPoint x="440" y="380" as="sourcePoint" />
            <mxPoint x="540" y="280" as="targetPoint" />
          </mxGeometry>
        </mxCell>
        <mxCell id="d8AmTmTILv6SGkgznYFD-25" style="edgeStyle=orthogonalEdgeStyle;rounded=0;orthogonalLoop=1;jettySize=auto;html=1;exitX=0;exitY=0.75;exitDx=0;exitDy=0;entryX=0;entryY=0.5;entryDx=0;entryDy=0;startArrow=ERzeroToOne;startFill=0;endArrow=ERzeroToMany;endFill=0;" parent="1" source="d8AmTmTILv6SGkgznYFD-4" target="d8AmTmTILv6SGkgznYFD-11" edge="1">
          <mxGeometry relative="1" as="geometry">
            <Array as="points">
              <mxPoint x="80" y="175" />
              <mxPoint x="80" y="660" />
            </Array>
          </mxGeometry>
        </mxCell>
        <mxCell id="d8AmTmTILv6SGkgznYFD-26" style="edgeStyle=orthogonalEdgeStyle;rounded=0;orthogonalLoop=1;jettySize=auto;html=1;exitX=0;exitY=0.75;exitDx=0;exitDy=0;entryX=-0.004;entryY=0.153;entryDx=0;entryDy=0;entryPerimeter=0;startArrow=ERzeroToOne;startFill=0;endArrow=ERzeroToMany;endFill=0;" parent="1" source="d8AmTmTILv6SGkgznYFD-8" target="d8AmTmTILv6SGkgznYFD-11" edge="1">
          <mxGeometry relative="1" as="geometry" />
        </mxCell>
        <mxCell id="OLbGe3KJl7Zb1P1dRPNu-1" value="&lt;font style=&quot;font-size: 15px;&quot;&gt;Current Entity-Relationships in DataLens v1, as exposed via the UI.&amp;nbsp; &lt;/font&gt;&lt;br&gt;&lt;br&gt;&lt;div style=&quot;&quot;&gt;&lt;span style=&quot;background-color: initial;&quot;&gt;This does not contain background entities (such as Data_Delivery), or system entities, such as lookup entities. Only high-level abstract entities are included for brevity and clarity.&lt;/span&gt;&lt;/div&gt;" style="text;html=1;strokeColor=none;fillColor=none;align=left;verticalAlign=middle;whiteSpace=wrap;rounded=0;" parent="1" vertex="1">
          <mxGeometry x="395" y="70" width="335" height="110" as="geometry" />
        </mxCell>
      </root>
    </mxGraphModel>
  </diagram>
  <diagram name="V1 modified" id="7S71TqNQv4S7F-3t-UAj">
    <mxGraphModel dx="1112" dy="1786" grid="1" gridSize="10" guides="1" tooltips="1" connect="1" arrows="1" fold="1" page="1" pageScale="1" pageWidth="850" pageHeight="1100" math="0" shadow="0" extFonts="Permanent Marker^https://fonts.googleapis.com/css?family=Permanent+Marker">
      <root>
        <mxCell id="3Jk8-GUGzcVSrGpkWwsU-0" />
        <mxCell id="3Jk8-GUGzcVSrGpkWwsU-1" parent="3Jk8-GUGzcVSrGpkWwsU-0" />
        <mxCell id="BajBwcSQeKG-jovP730m-8" style="edgeStyle=orthogonalEdgeStyle;rounded=0;orthogonalLoop=1;jettySize=auto;html=1;exitX=0.5;exitY=1;exitDx=0;exitDy=0;entryX=0.5;entryY=0;entryDx=0;entryDy=0;startArrow=ERmandOne;startFill=0;endArrow=ERzeroToMany;endFill=0;" edge="1" parent="3Jk8-GUGzcVSrGpkWwsU-1" source="3Jk8-GUGzcVSrGpkWwsU-2" target="BajBwcSQeKG-jovP730m-6">
          <mxGeometry relative="1" as="geometry" />
        </mxCell>
        <mxCell id="3Jk8-GUGzcVSrGpkWwsU-2" value="Project" style="swimlane;childLayout=stackLayout;horizontal=1;startSize=30;horizontalStack=0;rounded=1;fontSize=14;fontStyle=0;strokeWidth=2;resizeParent=0;resizeLast=1;shadow=0;dashed=0;align=center;fillColor=#dae8fc;strokeColor=#6c8ebf;" vertex="1" parent="3Jk8-GUGzcVSrGpkWwsU-1">
          <mxGeometry x="400" y="250" width="160" height="120" as="geometry" />
        </mxCell>
        <mxCell id="3Jk8-GUGzcVSrGpkWwsU-3" value="+ID&#xa;+Name&#xa;+Description&#xa;+" style="align=left;strokeColor=none;fillColor=none;spacingLeft=4;fontSize=12;verticalAlign=top;resizable=0;rotatable=0;part=1;" vertex="1" parent="3Jk8-GUGzcVSrGpkWwsU-2">
          <mxGeometry y="30" width="160" height="90" as="geometry" />
        </mxCell>
        <mxCell id="3Jk8-GUGzcVSrGpkWwsU-4" value="Protocol" style="swimlane;childLayout=stackLayout;horizontal=1;startSize=30;horizontalStack=0;rounded=1;fontSize=14;fontStyle=0;strokeWidth=2;resizeParent=0;resizeLast=1;shadow=0;dashed=0;align=center;fillColor=#dae8fc;strokeColor=#6c8ebf;" vertex="1" parent="3Jk8-GUGzcVSrGpkWwsU-1">
          <mxGeometry x="10" y="-10" width="160" height="130" as="geometry" />
        </mxCell>
        <mxCell id="3Jk8-GUGzcVSrGpkWwsU-5" value="+ID&#xa;+IRBNumber&#xa;+ProjectTitle&#xa;+ProjectStatus&#xa;+StartDate&#xa;+EndDate" style="align=left;strokeColor=none;fillColor=none;spacingLeft=4;fontSize=12;verticalAlign=top;resizable=0;rotatable=0;part=1;" vertex="1" parent="3Jk8-GUGzcVSrGpkWwsU-4">
          <mxGeometry y="30" width="160" height="100" as="geometry" />
        </mxCell>
        <mxCell id="3Jk8-GUGzcVSrGpkWwsU-6" value="Personnel" style="swimlane;childLayout=stackLayout;horizontal=1;startSize=30;horizontalStack=0;rounded=1;fontSize=14;fontStyle=0;strokeWidth=2;resizeParent=0;resizeLast=1;shadow=0;dashed=0;align=center;fillColor=#dae8fc;strokeColor=#6c8ebf;" vertex="1" parent="3Jk8-GUGzcVSrGpkWwsU-1">
          <mxGeometry x="140" y="230" width="160" height="120" as="geometry" />
        </mxCell>
        <mxCell id="3Jk8-GUGzcVSrGpkWwsU-7" value="+ID&#xa;+Name&#xa;+BlazerID&#xa;+ADUsername&#xa;+" style="align=left;strokeColor=none;fillColor=none;spacingLeft=4;fontSize=12;verticalAlign=top;resizable=0;rotatable=0;part=1;" vertex="1" parent="3Jk8-GUGzcVSrGpkWwsU-6">
          <mxGeometry y="30" width="160" height="90" as="geometry" />
        </mxCell>
        <mxCell id="3Jk8-GUGzcVSrGpkWwsU-8" value="Cohort" style="swimlane;childLayout=stackLayout;horizontal=1;startSize=30;horizontalStack=0;rounded=1;fontSize=14;fontStyle=0;strokeWidth=2;resizeParent=0;resizeLast=1;shadow=0;dashed=0;align=center;fillColor=#dae8fc;strokeColor=#6c8ebf;" vertex="1" parent="3Jk8-GUGzcVSrGpkWwsU-1">
          <mxGeometry x="140" y="380" width="160" height="150" as="geometry" />
        </mxCell>
        <mxCell id="3Jk8-GUGzcVSrGpkWwsU-9" value="+ID&#xa;+SourceSystem&#xa;+Status&#xa;+Title&#xa;+ResultType&#xa;+" style="align=left;strokeColor=none;fillColor=none;spacingLeft=4;fontSize=12;verticalAlign=top;resizable=0;rotatable=0;part=1;" vertex="1" parent="3Jk8-GUGzcVSrGpkWwsU-8">
          <mxGeometry y="30" width="160" height="120" as="geometry" />
        </mxCell>
        <mxCell id="BajBwcSQeKG-jovP730m-9" style="edgeStyle=orthogonalEdgeStyle;rounded=0;orthogonalLoop=1;jettySize=auto;html=1;exitX=1;exitY=0.25;exitDx=0;exitDy=0;entryX=0;entryY=0.667;entryDx=0;entryDy=0;entryPerimeter=0;startArrow=ERmandOne;startFill=0;endArrow=ERzeroToOne;endFill=0;" edge="1" parent="3Jk8-GUGzcVSrGpkWwsU-1" source="3Jk8-GUGzcVSrGpkWwsU-10" target="BajBwcSQeKG-jovP730m-7">
          <mxGeometry relative="1" as="geometry" />
        </mxCell>
        <mxCell id="3Jk8-GUGzcVSrGpkWwsU-10" value="DataRequest" style="swimlane;childLayout=stackLayout;horizontal=1;startSize=30;horizontalStack=0;rounded=1;fontSize=14;fontStyle=0;strokeWidth=2;resizeParent=0;resizeLast=1;shadow=0;dashed=0;align=center;fillColor=#dae8fc;strokeColor=#6c8ebf;" vertex="1" parent="3Jk8-GUGzcVSrGpkWwsU-1">
          <mxGeometry x="140" y="570" width="160" height="150" as="geometry" />
        </mxCell>
        <mxCell id="3Jk8-GUGzcVSrGpkWwsU-11" value="+ID&#xa;+Title&#xa;+Description&#xa;+Status&#xa;+Priority&#xa;+Assignee" style="align=left;strokeColor=none;fillColor=none;spacingLeft=4;fontSize=12;verticalAlign=top;resizable=0;rotatable=0;part=1;" vertex="1" parent="3Jk8-GUGzcVSrGpkWwsU-10">
          <mxGeometry y="30" width="160" height="120" as="geometry" />
        </mxCell>
        <mxCell id="3Jk8-GUGzcVSrGpkWwsU-12" value="Document" style="swimlane;childLayout=stackLayout;horizontal=1;startSize=30;horizontalStack=0;rounded=1;fontSize=14;fontStyle=0;strokeWidth=2;resizeParent=0;resizeLast=1;shadow=0;dashed=0;align=center;fillColor=#dae8fc;strokeColor=#6c8ebf;" vertex="1" parent="3Jk8-GUGzcVSrGpkWwsU-1">
          <mxGeometry x="400" y="600" width="160" height="120" as="geometry" />
        </mxCell>
        <mxCell id="3Jk8-GUGzcVSrGpkWwsU-13" value="+ID&#xa;+Name&#xa;+" style="align=left;strokeColor=none;fillColor=none;spacingLeft=4;fontSize=12;verticalAlign=top;resizable=0;rotatable=0;part=1;" vertex="1" parent="3Jk8-GUGzcVSrGpkWwsU-12">
          <mxGeometry y="30" width="160" height="90" as="geometry" />
        </mxCell>
        <mxCell id="3Jk8-GUGzcVSrGpkWwsU-15" value="" style="edgeStyle=entityRelationEdgeStyle;fontSize=12;html=1;endArrow=ERzeroToMany;endFill=1;startArrow=ERzeroToMany;rounded=0;entryX=-0.008;entryY=0.119;entryDx=0;entryDy=0;exitX=1;exitY=0;exitDx=0;exitDy=0;entryPerimeter=0;" edge="1" parent="3Jk8-GUGzcVSrGpkWwsU-1" source="3Jk8-GUGzcVSrGpkWwsU-7" target="3Jk8-GUGzcVSrGpkWwsU-3">
          <mxGeometry width="100" height="100" relative="1" as="geometry">
            <mxPoint x="390" y="430" as="sourcePoint" />
            <mxPoint x="490" y="330" as="targetPoint" />
          </mxGeometry>
        </mxCell>
        <mxCell id="3Jk8-GUGzcVSrGpkWwsU-16" value="" style="edgeStyle=entityRelationEdgeStyle;fontSize=12;html=1;endArrow=ERzeroToMany;endFill=0;startArrow=ERmandOne;rounded=0;exitX=0.996;exitY=0.121;exitDx=0;exitDy=0;exitPerimeter=0;entryX=-0.005;entryY=0.142;entryDx=0;entryDy=0;entryPerimeter=0;startFill=0;" edge="1" parent="3Jk8-GUGzcVSrGpkWwsU-1" source="3Jk8-GUGzcVSrGpkWwsU-9" target="BajBwcSQeKG-jovP730m-7">
          <mxGeometry width="100" height="100" relative="1" as="geometry">
            <mxPoint x="390" y="500" as="sourcePoint" />
            <mxPoint x="490" y="400" as="targetPoint" />
          </mxGeometry>
        </mxCell>
        <mxCell id="3Jk8-GUGzcVSrGpkWwsU-18" value="" style="edgeStyle=entityRelationEdgeStyle;fontSize=12;html=1;endArrow=ERzeroToMany;startArrow=ERmandOne;rounded=0;exitX=1;exitY=0.25;exitDx=0;exitDy=0;entryX=0;entryY=0.25;entryDx=0;entryDy=0;" edge="1" parent="3Jk8-GUGzcVSrGpkWwsU-1" source="3Jk8-GUGzcVSrGpkWwsU-11" target="3Jk8-GUGzcVSrGpkWwsU-13">
          <mxGeometry width="100" height="100" relative="1" as="geometry">
            <mxPoint x="320" y="560" as="sourcePoint" />
            <mxPoint x="420" y="460" as="targetPoint" />
          </mxGeometry>
        </mxCell>
        <mxCell id="3Jk8-GUGzcVSrGpkWwsU-19" value="Asset" style="swimlane;childLayout=stackLayout;horizontal=1;startSize=30;horizontalStack=0;rounded=1;fontSize=14;fontStyle=0;strokeWidth=2;resizeParent=0;resizeLast=1;shadow=0;dashed=0;align=center;fillColor=#dae8fc;strokeColor=#6c8ebf;" vertex="1" parent="3Jk8-GUGzcVSrGpkWwsU-1">
          <mxGeometry x="640" y="250" width="160" height="190" as="geometry" />
        </mxCell>
        <mxCell id="3Jk8-GUGzcVSrGpkWwsU-20" value="+ID&#xa;+AssetCategory&#xa;+AssetType&#xa;+AssetName&#xa;+AssetDescription&#xa;+UBRITEURI&#xa;+Path&#xa;+Version&#xa;+Owner" style="align=left;strokeColor=none;fillColor=none;spacingLeft=4;fontSize=12;verticalAlign=top;resizable=0;rotatable=0;part=1;" vertex="1" parent="3Jk8-GUGzcVSrGpkWwsU-19">
          <mxGeometry y="30" width="160" height="160" as="geometry" />
        </mxCell>
        <mxCell id="3Jk8-GUGzcVSrGpkWwsU-21" value="" style="edgeStyle=entityRelationEdgeStyle;fontSize=12;html=1;endArrow=ERzeroToMany;endFill=1;startArrow=ERzeroToMany;rounded=0;entryX=0;entryY=0.303;entryDx=0;entryDy=0;entryPerimeter=0;exitX=1;exitY=0.25;exitDx=0;exitDy=0;" edge="1" parent="3Jk8-GUGzcVSrGpkWwsU-1" source="3Jk8-GUGzcVSrGpkWwsU-3" target="3Jk8-GUGzcVSrGpkWwsU-20">
          <mxGeometry width="100" height="100" relative="1" as="geometry">
            <mxPoint x="440" y="380" as="sourcePoint" />
            <mxPoint x="540" y="280" as="targetPoint" />
          </mxGeometry>
        </mxCell>
        <mxCell id="BajBwcSQeKG-jovP730m-3" style="edgeStyle=orthogonalEdgeStyle;rounded=0;orthogonalLoop=1;jettySize=auto;html=1;exitX=1;exitY=0.75;exitDx=0;exitDy=0;entryX=0.5;entryY=0;entryDx=0;entryDy=0;startArrow=ERzeroToMany;startFill=0;endArrow=ERmandOne;endFill=0;" edge="1" parent="3Jk8-GUGzcVSrGpkWwsU-1" source="BajBwcSQeKG-jovP730m-0" target="3Jk8-GUGzcVSrGpkWwsU-2">
          <mxGeometry relative="1" as="geometry" />
        </mxCell>
        <mxCell id="BajBwcSQeKG-jovP730m-0" value="Protocol_Project" style="swimlane;childLayout=stackLayout;horizontal=1;startSize=30;horizontalStack=0;rounded=1;fontSize=14;fontStyle=0;strokeWidth=2;resizeParent=0;resizeLast=1;shadow=0;dashed=0;align=center;fillColor=#fff2cc;strokeColor=#d6b656;" vertex="1" parent="3Jk8-GUGzcVSrGpkWwsU-1">
          <mxGeometry x="265" y="70" width="160" height="120" as="geometry" />
        </mxCell>
        <mxCell id="BajBwcSQeKG-jovP730m-1" value="+Protocol_ID&#xa;+Project_ID&#xa;+" style="align=left;strokeColor=none;fillColor=none;spacingLeft=4;fontSize=12;verticalAlign=top;resizable=0;rotatable=0;part=1;" vertex="1" parent="BajBwcSQeKG-jovP730m-0">
          <mxGeometry y="30" width="160" height="90" as="geometry" />
        </mxCell>
        <mxCell id="BajBwcSQeKG-jovP730m-2" style="edgeStyle=orthogonalEdgeStyle;rounded=0;orthogonalLoop=1;jettySize=auto;html=1;exitX=1;exitY=0.25;exitDx=0;exitDy=0;entryX=0;entryY=0.25;entryDx=0;entryDy=0;startArrow=ERmandOne;startFill=0;endArrow=ERzeroToMany;endFill=0;" edge="1" parent="3Jk8-GUGzcVSrGpkWwsU-1" source="3Jk8-GUGzcVSrGpkWwsU-5" target="BajBwcSQeKG-jovP730m-1">
          <mxGeometry relative="1" as="geometry" />
        </mxCell>
        <mxCell id="BajBwcSQeKG-jovP730m-5" style="edgeStyle=orthogonalEdgeStyle;rounded=0;orthogonalLoop=1;jettySize=auto;html=1;exitX=0;exitY=0.5;exitDx=0;exitDy=0;entryX=0;entryY=0.5;entryDx=0;entryDy=0;startArrow=ERmandOne;startFill=0;endArrow=ERzeroToOne;endFill=0;" edge="1" parent="3Jk8-GUGzcVSrGpkWwsU-1" source="3Jk8-GUGzcVSrGpkWwsU-11" target="BajBwcSQeKG-jovP730m-1">
          <mxGeometry relative="1" as="geometry">
            <Array as="points">
              <mxPoint x="50" y="660" />
              <mxPoint x="50" y="145" />
            </Array>
          </mxGeometry>
        </mxCell>
        <mxCell id="BajBwcSQeKG-jovP730m-6" value="Cohort_Project" style="swimlane;childLayout=stackLayout;horizontal=1;startSize=30;horizontalStack=0;rounded=1;fontSize=14;fontStyle=0;strokeWidth=2;resizeParent=0;resizeLast=1;shadow=0;dashed=0;align=center;fillColor=#fff2cc;strokeColor=#d6b656;" vertex="1" parent="3Jk8-GUGzcVSrGpkWwsU-1">
          <mxGeometry x="400" y="430" width="160" height="120" as="geometry" />
        </mxCell>
        <mxCell id="BajBwcSQeKG-jovP730m-7" value="+Cohort_ID&#xa;+Project_ID&#xa;+" style="align=left;strokeColor=none;fillColor=none;spacingLeft=4;fontSize=12;verticalAlign=top;resizable=0;rotatable=0;part=1;" vertex="1" parent="BajBwcSQeKG-jovP730m-6">
          <mxGeometry y="30" width="160" height="90" as="geometry" />
        </mxCell>
        <mxCell id="g759ipEm7S-YToa12YmC-0" value="Change to v1 design to make sure Data Request link to Project is consistent between Cohort relationship and Protocol relationship." style="text;html=1;strokeColor=none;fillColor=none;align=left;verticalAlign=top;whiteSpace=wrap;rounded=0;" vertex="1" parent="3Jk8-GUGzcVSrGpkWwsU-1">
          <mxGeometry x="550" y="10" width="170" height="300" as="geometry" />
        </mxCell>
      </root>
    </mxGraphModel>
  </diagram>
  <diagram id="J8yNrLQW8f-ehPzT66p6" name="DR First">
    <mxGraphModel dx="1390" dy="858" grid="1" gridSize="10" guides="1" tooltips="1" connect="1" arrows="1" fold="1" page="1" pageScale="1" pageWidth="850" pageHeight="1100" math="0" shadow="0">
      <root>
        <mxCell id="0" />
        <mxCell id="1" parent="0" />
        <mxCell id="n4cZQlh9zmxZ8IGzf9dj-1" value="Data_Request" style="swimlane;childLayout=stackLayout;horizontal=1;startSize=30;horizontalStack=0;rounded=1;fontSize=14;fontStyle=0;strokeWidth=2;resizeParent=0;resizeLast=1;shadow=0;dashed=0;align=center;" vertex="1" parent="1">
          <mxGeometry x="80" y="360" width="160" height="120" as="geometry" />
        </mxCell>
        <mxCell id="n4cZQlh9zmxZ8IGzf9dj-2" value="+Attribute1&#xa;+Attribute2&#xa;+Attribute3" style="align=left;strokeColor=none;fillColor=none;spacingLeft=4;fontSize=12;verticalAlign=top;resizable=0;rotatable=0;part=1;" vertex="1" parent="n4cZQlh9zmxZ8IGzf9dj-1">
          <mxGeometry y="30" width="160" height="90" as="geometry" />
        </mxCell>
        <mxCell id="n4cZQlh9zmxZ8IGzf9dj-3" value="Protocol" style="swimlane;childLayout=stackLayout;horizontal=1;startSize=30;horizontalStack=0;rounded=1;fontSize=14;fontStyle=0;strokeWidth=2;resizeParent=0;resizeLast=1;shadow=0;dashed=0;align=center;" vertex="1" parent="1">
          <mxGeometry x="360" y="160" width="160" height="120" as="geometry" />
        </mxCell>
        <mxCell id="n4cZQlh9zmxZ8IGzf9dj-4" value="+Attribute1&#xa;+Attribute2&#xa;+Attribute3" style="align=left;strokeColor=none;fillColor=none;spacingLeft=4;fontSize=12;verticalAlign=top;resizable=0;rotatable=0;part=1;" vertex="1" parent="n4cZQlh9zmxZ8IGzf9dj-3">
          <mxGeometry y="30" width="160" height="90" as="geometry" />
        </mxCell>
        <mxCell id="n4cZQlh9zmxZ8IGzf9dj-6" value="Cohort" style="swimlane;childLayout=stackLayout;horizontal=1;startSize=30;horizontalStack=0;rounded=1;fontSize=14;fontStyle=0;strokeWidth=2;resizeParent=0;resizeLast=1;shadow=0;dashed=0;align=center;" vertex="1" parent="1">
          <mxGeometry x="360" y="360" width="160" height="120" as="geometry" />
        </mxCell>
        <mxCell id="n4cZQlh9zmxZ8IGzf9dj-7" value="+Attribute1&#xa;+Attribute2&#xa;+Attribute3" style="align=left;strokeColor=none;fillColor=none;spacingLeft=4;fontSize=12;verticalAlign=top;resizable=0;rotatable=0;part=1;" vertex="1" parent="n4cZQlh9zmxZ8IGzf9dj-6">
          <mxGeometry y="30" width="160" height="90" as="geometry" />
        </mxCell>
        <mxCell id="n4cZQlh9zmxZ8IGzf9dj-8" value="Personnel" style="swimlane;childLayout=stackLayout;horizontal=1;startSize=30;horizontalStack=0;rounded=1;fontSize=14;fontStyle=0;strokeWidth=2;resizeParent=0;resizeLast=1;shadow=0;dashed=0;align=center;" vertex="1" parent="1">
          <mxGeometry x="360" y="560" width="160" height="120" as="geometry" />
        </mxCell>
        <mxCell id="n4cZQlh9zmxZ8IGzf9dj-9" value="+Attribute1&#xa;+Attribute2&#xa;+Attribute3" style="align=left;strokeColor=none;fillColor=none;spacingLeft=4;fontSize=12;verticalAlign=top;resizable=0;rotatable=0;part=1;" vertex="1" parent="n4cZQlh9zmxZ8IGzf9dj-8">
          <mxGeometry y="30" width="160" height="90" as="geometry" />
        </mxCell>
        <mxCell id="n4cZQlh9zmxZ8IGzf9dj-10" value="User" style="swimlane;childLayout=stackLayout;horizontal=1;startSize=30;horizontalStack=0;rounded=1;fontSize=14;fontStyle=0;strokeWidth=2;resizeParent=0;resizeLast=1;shadow=0;dashed=0;align=center;" vertex="1" parent="1">
          <mxGeometry x="640" y="560" width="160" height="120" as="geometry" />
        </mxCell>
        <mxCell id="n4cZQlh9zmxZ8IGzf9dj-11" value="+Attribute1&#xa;+Attribute2&#xa;+Attribute3" style="align=left;strokeColor=none;fillColor=none;spacingLeft=4;fontSize=12;verticalAlign=top;resizable=0;rotatable=0;part=1;" vertex="1" parent="n4cZQlh9zmxZ8IGzf9dj-10">
          <mxGeometry y="30" width="160" height="90" as="geometry" />
        </mxCell>
        <mxCell id="n4cZQlh9zmxZ8IGzf9dj-12" value="Project" style="swimlane;childLayout=stackLayout;horizontal=1;startSize=30;horizontalStack=0;rounded=1;fontSize=14;fontStyle=0;strokeWidth=2;resizeParent=0;resizeLast=1;shadow=0;dashed=0;align=center;" vertex="1" parent="1">
          <mxGeometry x="360" y="760" width="160" height="120" as="geometry" />
        </mxCell>
        <mxCell id="n4cZQlh9zmxZ8IGzf9dj-13" value="+Attribute1&#xa;+Attribute2&#xa;+Attribute3" style="align=left;strokeColor=none;fillColor=none;spacingLeft=4;fontSize=12;verticalAlign=top;resizable=0;rotatable=0;part=1;" vertex="1" parent="n4cZQlh9zmxZ8IGzf9dj-12">
          <mxGeometry y="30" width="160" height="90" as="geometry" />
        </mxCell>
        <mxCell id="n4cZQlh9zmxZ8IGzf9dj-14" style="edgeStyle=orthogonalEdgeStyle;rounded=0;orthogonalLoop=1;jettySize=auto;html=1;exitX=0;exitY=0.75;exitDx=0;exitDy=0;entryX=0.75;entryY=0;entryDx=0;entryDy=0;startArrow=ERzeroToOne;startFill=0;endArrow=ERzeroToOne;endFill=0;" edge="1" parent="1" source="n4cZQlh9zmxZ8IGzf9dj-4" target="n4cZQlh9zmxZ8IGzf9dj-1">
          <mxGeometry relative="1" as="geometry" />
        </mxCell>
        <mxCell id="n4cZQlh9zmxZ8IGzf9dj-15" style="edgeStyle=orthogonalEdgeStyle;rounded=0;orthogonalLoop=1;jettySize=auto;html=1;exitX=1;exitY=0.25;exitDx=0;exitDy=0;entryX=0;entryY=0.25;entryDx=0;entryDy=0;startArrow=ERzeroToOne;startFill=0;endArrow=ERzeroToMany;endFill=0;" edge="1" parent="1" source="n4cZQlh9zmxZ8IGzf9dj-2" target="n4cZQlh9zmxZ8IGzf9dj-7">
          <mxGeometry relative="1" as="geometry" />
        </mxCell>
        <mxCell id="n4cZQlh9zmxZ8IGzf9dj-16" style="edgeStyle=orthogonalEdgeStyle;rounded=0;orthogonalLoop=1;jettySize=auto;html=1;exitX=1;exitY=0.5;exitDx=0;exitDy=0;entryX=0;entryY=0.5;entryDx=0;entryDy=0;startArrow=ERzeroToMany;startFill=0;endArrow=ERoneToMany;endFill=0;" edge="1" parent="1" source="n4cZQlh9zmxZ8IGzf9dj-2" target="n4cZQlh9zmxZ8IGzf9dj-8">
          <mxGeometry relative="1" as="geometry" />
        </mxCell>
        <mxCell id="n4cZQlh9zmxZ8IGzf9dj-17" style="edgeStyle=orthogonalEdgeStyle;rounded=0;orthogonalLoop=1;jettySize=auto;html=1;exitX=1;exitY=0.75;exitDx=0;exitDy=0;entryX=0;entryY=0.25;entryDx=0;entryDy=0;startArrow=ERzeroToMany;startFill=0;endArrow=ERzeroToOne;endFill=0;" edge="1" parent="1" source="n4cZQlh9zmxZ8IGzf9dj-2" target="n4cZQlh9zmxZ8IGzf9dj-13">
          <mxGeometry relative="1" as="geometry">
            <Array as="points">
              <mxPoint x="280" y="458" />
              <mxPoint x="280" y="813" />
            </Array>
          </mxGeometry>
        </mxCell>
        <mxCell id="n4cZQlh9zmxZ8IGzf9dj-18" style="edgeStyle=orthogonalEdgeStyle;rounded=0;orthogonalLoop=1;jettySize=auto;html=1;exitX=1;exitY=0.25;exitDx=0;exitDy=0;entryX=0;entryY=0.25;entryDx=0;entryDy=0;startArrow=ERmandOne;startFill=0;endArrow=ERzeroToOne;endFill=0;" edge="1" parent="1" source="n4cZQlh9zmxZ8IGzf9dj-9" target="n4cZQlh9zmxZ8IGzf9dj-11">
          <mxGeometry relative="1" as="geometry" />
        </mxCell>
        <mxCell id="mTW2y6AMR0eNrolalHSZ-1" value="ERD if Data Request (DR) is the controlling entity in the system.&amp;nbsp; Assumed that DR creation is entry point for most/all use cases.&lt;br&gt;&lt;br&gt;Protocol and Cohorts and Personnel are tied to DRs.&amp;nbsp; Projects can contain multiple DRs, but everything is linked to DRs." style="text;html=1;strokeColor=none;fillColor=none;align=left;verticalAlign=top;whiteSpace=wrap;rounded=0;" vertex="1" parent="1">
          <mxGeometry x="620" y="180" width="170" height="300" as="geometry" />
        </mxCell>
      </root>
    </mxGraphModel>
  </diagram>
  <diagram name="DR and Proj" id="tU2lpifY1ctUqpelhyei">
    <mxGraphModel dx="1390" dy="858" grid="1" gridSize="10" guides="1" tooltips="1" connect="1" arrows="1" fold="1" page="1" pageScale="1" pageWidth="850" pageHeight="1100" math="0" shadow="0">
      <root>
        <mxCell id="Cx8sFlUUs4_hImFGVK46-0" />
        <mxCell id="Cx8sFlUUs4_hImFGVK46-1" parent="Cx8sFlUUs4_hImFGVK46-0" />
        <mxCell id="Cx8sFlUUs4_hImFGVK46-2" value="Data_Request" style="swimlane;childLayout=stackLayout;horizontal=1;startSize=30;horizontalStack=0;rounded=1;fontSize=14;fontStyle=0;strokeWidth=2;resizeParent=0;resizeLast=1;shadow=0;dashed=0;align=center;" vertex="1" parent="Cx8sFlUUs4_hImFGVK46-1">
          <mxGeometry x="80" y="360" width="160" height="120" as="geometry" />
        </mxCell>
        <mxCell id="Cx8sFlUUs4_hImFGVK46-3" value="+Attribute1&#xa;+Attribute2&#xa;+Attribute3" style="align=left;strokeColor=none;fillColor=none;spacingLeft=4;fontSize=12;verticalAlign=top;resizable=0;rotatable=0;part=1;" vertex="1" parent="Cx8sFlUUs4_hImFGVK46-2">
          <mxGeometry y="30" width="160" height="90" as="geometry" />
        </mxCell>
        <mxCell id="Cx8sFlUUs4_hImFGVK46-4" value="Protocol" style="swimlane;childLayout=stackLayout;horizontal=1;startSize=30;horizontalStack=0;rounded=1;fontSize=14;fontStyle=0;strokeWidth=2;resizeParent=0;resizeLast=1;shadow=0;dashed=0;align=center;" vertex="1" parent="Cx8sFlUUs4_hImFGVK46-1">
          <mxGeometry x="360" y="160" width="160" height="120" as="geometry" />
        </mxCell>
        <mxCell id="Cx8sFlUUs4_hImFGVK46-5" value="+Attribute1&#xa;+Attribute2&#xa;+Attribute3" style="align=left;strokeColor=none;fillColor=none;spacingLeft=4;fontSize=12;verticalAlign=top;resizable=0;rotatable=0;part=1;" vertex="1" parent="Cx8sFlUUs4_hImFGVK46-4">
          <mxGeometry y="30" width="160" height="90" as="geometry" />
        </mxCell>
        <mxCell id="Cx8sFlUUs4_hImFGVK46-6" value="Cohort" style="swimlane;childLayout=stackLayout;horizontal=1;startSize=30;horizontalStack=0;rounded=1;fontSize=14;fontStyle=0;strokeWidth=2;resizeParent=0;resizeLast=1;shadow=0;dashed=0;align=center;" vertex="1" parent="Cx8sFlUUs4_hImFGVK46-1">
          <mxGeometry x="360" y="360" width="160" height="120" as="geometry" />
        </mxCell>
        <mxCell id="Cx8sFlUUs4_hImFGVK46-7" value="+Attribute1&#xa;+Attribute2&#xa;+Attribute3" style="align=left;strokeColor=none;fillColor=none;spacingLeft=4;fontSize=12;verticalAlign=top;resizable=0;rotatable=0;part=1;" vertex="1" parent="Cx8sFlUUs4_hImFGVK46-6">
          <mxGeometry y="30" width="160" height="90" as="geometry" />
        </mxCell>
        <mxCell id="Cx8sFlUUs4_hImFGVK46-8" value="Personnel" style="swimlane;childLayout=stackLayout;horizontal=1;startSize=30;horizontalStack=0;rounded=1;fontSize=14;fontStyle=0;strokeWidth=2;resizeParent=0;resizeLast=1;shadow=0;dashed=0;align=center;" vertex="1" parent="Cx8sFlUUs4_hImFGVK46-1">
          <mxGeometry x="360" y="560" width="160" height="120" as="geometry" />
        </mxCell>
        <mxCell id="Cx8sFlUUs4_hImFGVK46-9" value="+Attribute1&#xa;+Attribute2&#xa;+Attribute3" style="align=left;strokeColor=none;fillColor=none;spacingLeft=4;fontSize=12;verticalAlign=top;resizable=0;rotatable=0;part=1;" vertex="1" parent="Cx8sFlUUs4_hImFGVK46-8">
          <mxGeometry y="30" width="160" height="90" as="geometry" />
        </mxCell>
        <mxCell id="Cx8sFlUUs4_hImFGVK46-10" value="User" style="swimlane;childLayout=stackLayout;horizontal=1;startSize=30;horizontalStack=0;rounded=1;fontSize=14;fontStyle=0;strokeWidth=2;resizeParent=0;resizeLast=1;shadow=0;dashed=0;align=center;" vertex="1" parent="Cx8sFlUUs4_hImFGVK46-1">
          <mxGeometry x="640" y="560" width="160" height="120" as="geometry" />
        </mxCell>
        <mxCell id="Cx8sFlUUs4_hImFGVK46-11" value="+Attribute1&#xa;+Attribute2&#xa;+Attribute3" style="align=left;strokeColor=none;fillColor=none;spacingLeft=4;fontSize=12;verticalAlign=top;resizable=0;rotatable=0;part=1;" vertex="1" parent="Cx8sFlUUs4_hImFGVK46-10">
          <mxGeometry y="30" width="160" height="90" as="geometry" />
        </mxCell>
        <mxCell id="Cx8sFlUUs4_hImFGVK46-12" value="Project" style="swimlane;childLayout=stackLayout;horizontal=1;startSize=30;horizontalStack=0;rounded=1;fontSize=14;fontStyle=0;strokeWidth=2;resizeParent=0;resizeLast=1;shadow=0;dashed=0;align=center;" vertex="1" parent="Cx8sFlUUs4_hImFGVK46-1">
          <mxGeometry x="360" y="760" width="160" height="120" as="geometry" />
        </mxCell>
        <mxCell id="Cx8sFlUUs4_hImFGVK46-13" value="+Attribute1&#xa;+Attribute2&#xa;+Attribute3" style="align=left;strokeColor=none;fillColor=none;spacingLeft=4;fontSize=12;verticalAlign=top;resizable=0;rotatable=0;part=1;" vertex="1" parent="Cx8sFlUUs4_hImFGVK46-12">
          <mxGeometry y="30" width="160" height="90" as="geometry" />
        </mxCell>
        <mxCell id="Cx8sFlUUs4_hImFGVK46-14" style="edgeStyle=orthogonalEdgeStyle;rounded=0;orthogonalLoop=1;jettySize=auto;html=1;exitX=0;exitY=0.75;exitDx=0;exitDy=0;entryX=0.75;entryY=0;entryDx=0;entryDy=0;startArrow=ERzeroToOne;startFill=0;endArrow=ERzeroToOne;endFill=0;" edge="1" parent="Cx8sFlUUs4_hImFGVK46-1" source="Cx8sFlUUs4_hImFGVK46-5" target="Cx8sFlUUs4_hImFGVK46-2">
          <mxGeometry relative="1" as="geometry" />
        </mxCell>
        <mxCell id="Cx8sFlUUs4_hImFGVK46-15" style="edgeStyle=orthogonalEdgeStyle;rounded=0;orthogonalLoop=1;jettySize=auto;html=1;exitX=1;exitY=0.25;exitDx=0;exitDy=0;entryX=0;entryY=0.25;entryDx=0;entryDy=0;startArrow=ERzeroToOne;startFill=0;endArrow=ERzeroToMany;endFill=0;" edge="1" parent="Cx8sFlUUs4_hImFGVK46-1" source="Cx8sFlUUs4_hImFGVK46-3" target="Cx8sFlUUs4_hImFGVK46-7">
          <mxGeometry relative="1" as="geometry" />
        </mxCell>
        <mxCell id="Cx8sFlUUs4_hImFGVK46-16" style="edgeStyle=orthogonalEdgeStyle;rounded=0;orthogonalLoop=1;jettySize=auto;html=1;exitX=0.5;exitY=0;exitDx=0;exitDy=0;entryX=0.5;entryY=1;entryDx=0;entryDy=0;startArrow=ERzeroToMany;startFill=0;endArrow=ERoneToMany;endFill=0;" edge="1" parent="Cx8sFlUUs4_hImFGVK46-1" source="Cx8sFlUUs4_hImFGVK46-12" target="Cx8sFlUUs4_hImFGVK46-9">
          <mxGeometry relative="1" as="geometry" />
        </mxCell>
        <mxCell id="Cx8sFlUUs4_hImFGVK46-17" style="edgeStyle=orthogonalEdgeStyle;rounded=0;orthogonalLoop=1;jettySize=auto;html=1;exitX=1;exitY=0.75;exitDx=0;exitDy=0;entryX=0;entryY=0.25;entryDx=0;entryDy=0;startArrow=ERzeroToMany;startFill=0;endArrow=ERzeroToOne;endFill=0;" edge="1" parent="Cx8sFlUUs4_hImFGVK46-1" source="Cx8sFlUUs4_hImFGVK46-3" target="Cx8sFlUUs4_hImFGVK46-13">
          <mxGeometry relative="1" as="geometry">
            <Array as="points">
              <mxPoint x="280" y="458" />
              <mxPoint x="280" y="813" />
            </Array>
          </mxGeometry>
        </mxCell>
        <mxCell id="Cx8sFlUUs4_hImFGVK46-18" style="edgeStyle=orthogonalEdgeStyle;rounded=0;orthogonalLoop=1;jettySize=auto;html=1;exitX=1;exitY=0.25;exitDx=0;exitDy=0;entryX=0;entryY=0.25;entryDx=0;entryDy=0;startArrow=ERmandOne;startFill=0;endArrow=ERzeroToOne;endFill=0;" edge="1" parent="Cx8sFlUUs4_hImFGVK46-1" source="Cx8sFlUUs4_hImFGVK46-9" target="Cx8sFlUUs4_hImFGVK46-11">
          <mxGeometry relative="1" as="geometry" />
        </mxCell>
        <mxCell id="pAHcjIf9ECYI8caczXj9-0" value="ERD if Data Request (DR) and Project are the controlling entities in the system.&amp;nbsp; Assumed that DR creation is entry point for most/all use cases, but Project can be created with Personnel (and other not-shown entities, like Assets).&lt;br&gt;&lt;br&gt;Protocol and Cohorts are ONLY linked to the DR.&amp;nbsp; Personnel is tied to a Project (all personnel would have access to all DRs on a project). Projects can contain multiple DRs, but do not directly contain Protocols or Cohorts." style="text;html=1;strokeColor=none;fillColor=none;align=left;verticalAlign=top;whiteSpace=wrap;rounded=0;" vertex="1" parent="Cx8sFlUUs4_hImFGVK46-1">
          <mxGeometry x="620" y="180" width="170" height="300" as="geometry" />
        </mxCell>
      </root>
    </mxGraphModel>
  </diagram>
  <diagram name="DR and Proj Person Access" id="6xmzK6ug_lcVy6Goud4q">
    <mxGraphModel dx="1390" dy="858" grid="1" gridSize="10" guides="1" tooltips="1" connect="1" arrows="1" fold="1" page="1" pageScale="1" pageWidth="850" pageHeight="1100" math="0" shadow="0">
      <root>
        <mxCell id="4lZi3NKIiQgMZKJlGmGD-0" />
        <mxCell id="4lZi3NKIiQgMZKJlGmGD-1" parent="4lZi3NKIiQgMZKJlGmGD-0" />
        <mxCell id="4lZi3NKIiQgMZKJlGmGD-2" value="Data_Request" style="swimlane;childLayout=stackLayout;horizontal=1;startSize=30;horizontalStack=0;rounded=1;fontSize=14;fontStyle=0;strokeWidth=2;resizeParent=0;resizeLast=1;shadow=0;dashed=0;align=center;" vertex="1" parent="4lZi3NKIiQgMZKJlGmGD-1">
          <mxGeometry x="80" y="360" width="160" height="120" as="geometry" />
        </mxCell>
        <mxCell id="4lZi3NKIiQgMZKJlGmGD-3" value="+Attribute1&#xa;+Attribute2&#xa;+Attribute3" style="align=left;strokeColor=none;fillColor=none;spacingLeft=4;fontSize=12;verticalAlign=top;resizable=0;rotatable=0;part=1;" vertex="1" parent="4lZi3NKIiQgMZKJlGmGD-2">
          <mxGeometry y="30" width="160" height="90" as="geometry" />
        </mxCell>
        <mxCell id="4lZi3NKIiQgMZKJlGmGD-4" value="Protocol" style="swimlane;childLayout=stackLayout;horizontal=1;startSize=30;horizontalStack=0;rounded=1;fontSize=14;fontStyle=0;strokeWidth=2;resizeParent=0;resizeLast=1;shadow=0;dashed=0;align=center;" vertex="1" parent="4lZi3NKIiQgMZKJlGmGD-1">
          <mxGeometry x="360" y="160" width="160" height="120" as="geometry" />
        </mxCell>
        <mxCell id="4lZi3NKIiQgMZKJlGmGD-5" value="+Attribute1&#xa;+Attribute2&#xa;+Attribute3" style="align=left;strokeColor=none;fillColor=none;spacingLeft=4;fontSize=12;verticalAlign=top;resizable=0;rotatable=0;part=1;" vertex="1" parent="4lZi3NKIiQgMZKJlGmGD-4">
          <mxGeometry y="30" width="160" height="90" as="geometry" />
        </mxCell>
        <mxCell id="4lZi3NKIiQgMZKJlGmGD-6" value="Cohort" style="swimlane;childLayout=stackLayout;horizontal=1;startSize=30;horizontalStack=0;rounded=1;fontSize=14;fontStyle=0;strokeWidth=2;resizeParent=0;resizeLast=1;shadow=0;dashed=0;align=center;" vertex="1" parent="4lZi3NKIiQgMZKJlGmGD-1">
          <mxGeometry x="360" y="360" width="160" height="120" as="geometry" />
        </mxCell>
        <mxCell id="4lZi3NKIiQgMZKJlGmGD-7" value="+Attribute1&#xa;+Attribute2&#xa;+Attribute3" style="align=left;strokeColor=none;fillColor=none;spacingLeft=4;fontSize=12;verticalAlign=top;resizable=0;rotatable=0;part=1;" vertex="1" parent="4lZi3NKIiQgMZKJlGmGD-6">
          <mxGeometry y="30" width="160" height="90" as="geometry" />
        </mxCell>
        <mxCell id="HbHNUpD6GMEyMAzVwi6A-7" style="edgeStyle=orthogonalEdgeStyle;rounded=0;orthogonalLoop=1;jettySize=auto;html=1;exitX=0.5;exitY=0;exitDx=0;exitDy=0;entryX=0.5;entryY=1;entryDx=0;entryDy=0;startArrow=ERmandOne;startFill=0;endArrow=ERzeroToMany;endFill=0;" edge="1" parent="4lZi3NKIiQgMZKJlGmGD-1" source="4lZi3NKIiQgMZKJlGmGD-8" target="HbHNUpD6GMEyMAzVwi6A-1">
          <mxGeometry relative="1" as="geometry" />
        </mxCell>
        <mxCell id="4lZi3NKIiQgMZKJlGmGD-8" value="Personnel" style="swimlane;childLayout=stackLayout;horizontal=1;startSize=30;horizontalStack=0;rounded=1;fontSize=14;fontStyle=0;strokeWidth=2;resizeParent=0;resizeLast=1;shadow=0;dashed=0;align=center;" vertex="1" parent="4lZi3NKIiQgMZKJlGmGD-1">
          <mxGeometry x="360" y="690" width="160" height="120" as="geometry" />
        </mxCell>
        <mxCell id="4lZi3NKIiQgMZKJlGmGD-9" value="+Attribute1&#xa;+Attribute2&#xa;+Attribute3" style="align=left;strokeColor=none;fillColor=none;spacingLeft=4;fontSize=12;verticalAlign=top;resizable=0;rotatable=0;part=1;" vertex="1" parent="4lZi3NKIiQgMZKJlGmGD-8">
          <mxGeometry y="30" width="160" height="90" as="geometry" />
        </mxCell>
        <mxCell id="4lZi3NKIiQgMZKJlGmGD-10" value="User" style="swimlane;childLayout=stackLayout;horizontal=1;startSize=30;horizontalStack=0;rounded=1;fontSize=14;fontStyle=0;strokeWidth=2;resizeParent=0;resizeLast=1;shadow=0;dashed=0;align=center;" vertex="1" parent="4lZi3NKIiQgMZKJlGmGD-1">
          <mxGeometry x="640" y="690" width="160" height="120" as="geometry" />
        </mxCell>
        <mxCell id="4lZi3NKIiQgMZKJlGmGD-11" value="+Attribute1&#xa;+Attribute2&#xa;+Attribute3" style="align=left;strokeColor=none;fillColor=none;spacingLeft=4;fontSize=12;verticalAlign=top;resizable=0;rotatable=0;part=1;" vertex="1" parent="4lZi3NKIiQgMZKJlGmGD-10">
          <mxGeometry y="30" width="160" height="90" as="geometry" />
        </mxCell>
        <mxCell id="4lZi3NKIiQgMZKJlGmGD-12" value="Project" style="swimlane;childLayout=stackLayout;horizontal=1;startSize=30;horizontalStack=0;rounded=1;fontSize=14;fontStyle=0;strokeWidth=2;resizeParent=0;resizeLast=1;shadow=0;dashed=0;align=center;" vertex="1" parent="4lZi3NKIiQgMZKJlGmGD-1">
          <mxGeometry x="360" y="870" width="160" height="120" as="geometry" />
        </mxCell>
        <mxCell id="4lZi3NKIiQgMZKJlGmGD-13" value="+Attribute1&#xa;+Attribute2&#xa;+Attribute3" style="align=left;strokeColor=none;fillColor=none;spacingLeft=4;fontSize=12;verticalAlign=top;resizable=0;rotatable=0;part=1;" vertex="1" parent="4lZi3NKIiQgMZKJlGmGD-12">
          <mxGeometry y="30" width="160" height="90" as="geometry" />
        </mxCell>
        <mxCell id="4lZi3NKIiQgMZKJlGmGD-14" style="edgeStyle=orthogonalEdgeStyle;rounded=0;orthogonalLoop=1;jettySize=auto;html=1;exitX=0;exitY=0.75;exitDx=0;exitDy=0;entryX=0.75;entryY=0;entryDx=0;entryDy=0;startArrow=ERzeroToOne;startFill=0;endArrow=ERzeroToOne;endFill=0;" edge="1" parent="4lZi3NKIiQgMZKJlGmGD-1" source="4lZi3NKIiQgMZKJlGmGD-5" target="4lZi3NKIiQgMZKJlGmGD-2">
          <mxGeometry relative="1" as="geometry" />
        </mxCell>
        <mxCell id="4lZi3NKIiQgMZKJlGmGD-15" style="edgeStyle=orthogonalEdgeStyle;rounded=0;orthogonalLoop=1;jettySize=auto;html=1;exitX=1;exitY=0.25;exitDx=0;exitDy=0;entryX=0;entryY=0.25;entryDx=0;entryDy=0;startArrow=ERzeroToOne;startFill=0;endArrow=ERzeroToMany;endFill=0;" edge="1" parent="4lZi3NKIiQgMZKJlGmGD-1" source="4lZi3NKIiQgMZKJlGmGD-3" target="4lZi3NKIiQgMZKJlGmGD-7">
          <mxGeometry relative="1" as="geometry" />
        </mxCell>
        <mxCell id="4lZi3NKIiQgMZKJlGmGD-16" style="edgeStyle=orthogonalEdgeStyle;rounded=0;orthogonalLoop=1;jettySize=auto;html=1;exitX=0.5;exitY=0;exitDx=0;exitDy=0;entryX=0.5;entryY=1;entryDx=0;entryDy=0;startArrow=ERzeroToMany;startFill=0;endArrow=ERoneToMany;endFill=0;" edge="1" parent="4lZi3NKIiQgMZKJlGmGD-1" source="4lZi3NKIiQgMZKJlGmGD-12" target="4lZi3NKIiQgMZKJlGmGD-9">
          <mxGeometry relative="1" as="geometry" />
        </mxCell>
        <mxCell id="4lZi3NKIiQgMZKJlGmGD-17" style="edgeStyle=orthogonalEdgeStyle;rounded=0;orthogonalLoop=1;jettySize=auto;html=1;exitX=1;exitY=0.75;exitDx=0;exitDy=0;entryX=0;entryY=0.25;entryDx=0;entryDy=0;startArrow=ERzeroToMany;startFill=0;endArrow=ERzeroToOne;endFill=0;" edge="1" parent="4lZi3NKIiQgMZKJlGmGD-1" source="4lZi3NKIiQgMZKJlGmGD-3" target="4lZi3NKIiQgMZKJlGmGD-13">
          <mxGeometry relative="1" as="geometry">
            <Array as="points">
              <mxPoint x="280" y="458" />
              <mxPoint x="280" y="923" />
            </Array>
          </mxGeometry>
        </mxCell>
        <mxCell id="4lZi3NKIiQgMZKJlGmGD-18" style="edgeStyle=orthogonalEdgeStyle;rounded=0;orthogonalLoop=1;jettySize=auto;html=1;exitX=1;exitY=0.25;exitDx=0;exitDy=0;entryX=0;entryY=0.25;entryDx=0;entryDy=0;startArrow=ERmandOne;startFill=0;endArrow=ERzeroToOne;endFill=0;" edge="1" parent="4lZi3NKIiQgMZKJlGmGD-1" source="4lZi3NKIiQgMZKJlGmGD-9" target="4lZi3NKIiQgMZKJlGmGD-11">
          <mxGeometry relative="1" as="geometry" />
        </mxCell>
        <mxCell id="4lZi3NKIiQgMZKJlGmGD-19" value="ERD if Data Request (DR) and Project are the controlling entities in the system.&amp;nbsp; Assumed that DR creation is entry point for most/all use cases, but Project can be created with Personnel (and other not-shown entities, like Assets).&lt;br&gt;&lt;br&gt;Protocol and Cohorts are ONLY linked to the DR.&amp;nbsp; Personnel is tied to a Project and Data Request. Projects can contain multiple DRs, but do not directly contain Protocols or Cohorts." style="text;html=1;strokeColor=none;fillColor=none;align=left;verticalAlign=top;whiteSpace=wrap;rounded=0;" vertex="1" parent="4lZi3NKIiQgMZKJlGmGD-1">
          <mxGeometry x="620" y="180" width="170" height="300" as="geometry" />
        </mxCell>
        <mxCell id="HbHNUpD6GMEyMAzVwi6A-0" value="Data_Request_Access" style="swimlane;childLayout=stackLayout;horizontal=1;startSize=30;horizontalStack=0;rounded=1;fontSize=14;fontStyle=0;strokeWidth=2;resizeParent=0;resizeLast=1;shadow=0;dashed=0;align=center;" vertex="1" parent="4lZi3NKIiQgMZKJlGmGD-1">
          <mxGeometry x="360" y="510" width="160" height="120" as="geometry" />
        </mxCell>
        <mxCell id="HbHNUpD6GMEyMAzVwi6A-1" value="+Attribute1&#xa;+Attribute2&#xa;+Attribute3" style="align=left;strokeColor=none;fillColor=none;spacingLeft=4;fontSize=12;verticalAlign=top;resizable=0;rotatable=0;part=1;" vertex="1" parent="HbHNUpD6GMEyMAzVwi6A-0">
          <mxGeometry y="30" width="160" height="90" as="geometry" />
        </mxCell>
        <mxCell id="HbHNUpD6GMEyMAzVwi6A-9" style="edgeStyle=orthogonalEdgeStyle;rounded=0;orthogonalLoop=1;jettySize=auto;html=1;exitX=1;exitY=0.5;exitDx=0;exitDy=0;entryX=0;entryY=0.25;entryDx=0;entryDy=0;startArrow=ERmandOne;startFill=0;endArrow=ERzeroToMany;endFill=0;" edge="1" parent="4lZi3NKIiQgMZKJlGmGD-1" source="4lZi3NKIiQgMZKJlGmGD-3" target="HbHNUpD6GMEyMAzVwi6A-1">
          <mxGeometry relative="1" as="geometry">
            <Array as="points">
              <mxPoint x="320" y="435" />
              <mxPoint x="320" y="563" />
            </Array>
          </mxGeometry>
        </mxCell>
      </root>
    </mxGraphModel>
  </diagram>
  <diagram name="DR and Proj w Assets" id="8kzqlVQ6D2dT_meRowpI">
    <mxGraphModel dx="1390" dy="858" grid="1" gridSize="10" guides="1" tooltips="1" connect="1" arrows="1" fold="1" page="1" pageScale="1" pageWidth="850" pageHeight="1100" math="0" shadow="0">
      <root>
        <mxCell id="5Gi5aDpOh4KmLfHU4TaB-0" />
        <mxCell id="5Gi5aDpOh4KmLfHU4TaB-1" parent="5Gi5aDpOh4KmLfHU4TaB-0" />
        <mxCell id="5Gi5aDpOh4KmLfHU4TaB-2" value="Data_Request" style="swimlane;childLayout=stackLayout;horizontal=1;startSize=30;horizontalStack=0;rounded=1;fontSize=14;fontStyle=0;strokeWidth=2;resizeParent=0;resizeLast=1;shadow=0;dashed=0;align=center;" vertex="1" parent="5Gi5aDpOh4KmLfHU4TaB-1">
          <mxGeometry x="80" y="360" width="160" height="120" as="geometry" />
        </mxCell>
        <mxCell id="5Gi5aDpOh4KmLfHU4TaB-3" value="+Attribute1&#xa;+Attribute2&#xa;+Attribute3" style="align=left;strokeColor=none;fillColor=none;spacingLeft=4;fontSize=12;verticalAlign=top;resizable=0;rotatable=0;part=1;" vertex="1" parent="5Gi5aDpOh4KmLfHU4TaB-2">
          <mxGeometry y="30" width="160" height="90" as="geometry" />
        </mxCell>
        <mxCell id="5Gi5aDpOh4KmLfHU4TaB-4" value="Protocol" style="swimlane;childLayout=stackLayout;horizontal=1;startSize=30;horizontalStack=0;rounded=1;fontSize=14;fontStyle=0;strokeWidth=2;resizeParent=0;resizeLast=1;shadow=0;dashed=0;align=center;" vertex="1" parent="5Gi5aDpOh4KmLfHU4TaB-1">
          <mxGeometry x="360" y="160" width="160" height="120" as="geometry" />
        </mxCell>
        <mxCell id="5Gi5aDpOh4KmLfHU4TaB-5" value="+Attribute1&#xa;+Attribute2&#xa;+Attribute3" style="align=left;strokeColor=none;fillColor=none;spacingLeft=4;fontSize=12;verticalAlign=top;resizable=0;rotatable=0;part=1;" vertex="1" parent="5Gi5aDpOh4KmLfHU4TaB-4">
          <mxGeometry y="30" width="160" height="90" as="geometry" />
        </mxCell>
        <mxCell id="5Gi5aDpOh4KmLfHU4TaB-6" value="Cohort" style="swimlane;childLayout=stackLayout;horizontal=1;startSize=30;horizontalStack=0;rounded=1;fontSize=14;fontStyle=0;strokeWidth=2;resizeParent=0;resizeLast=1;shadow=0;dashed=0;align=center;" vertex="1" parent="5Gi5aDpOh4KmLfHU4TaB-1">
          <mxGeometry x="360" y="360" width="160" height="120" as="geometry" />
        </mxCell>
        <mxCell id="5Gi5aDpOh4KmLfHU4TaB-7" value="+Attribute1&#xa;+Attribute2&#xa;+Attribute3" style="align=left;strokeColor=none;fillColor=none;spacingLeft=4;fontSize=12;verticalAlign=top;resizable=0;rotatable=0;part=1;" vertex="1" parent="5Gi5aDpOh4KmLfHU4TaB-6">
          <mxGeometry y="30" width="160" height="90" as="geometry" />
        </mxCell>
        <mxCell id="5Gi5aDpOh4KmLfHU4TaB-8" style="edgeStyle=orthogonalEdgeStyle;rounded=0;orthogonalLoop=1;jettySize=auto;html=1;exitX=0.5;exitY=0;exitDx=0;exitDy=0;entryX=0.5;entryY=1;entryDx=0;entryDy=0;startArrow=ERmandOne;startFill=0;endArrow=ERzeroToMany;endFill=0;" edge="1" parent="5Gi5aDpOh4KmLfHU4TaB-1" source="5Gi5aDpOh4KmLfHU4TaB-9" target="5Gi5aDpOh4KmLfHU4TaB-22">
          <mxGeometry relative="1" as="geometry" />
        </mxCell>
        <mxCell id="5Gi5aDpOh4KmLfHU4TaB-9" value="Personnel" style="swimlane;childLayout=stackLayout;horizontal=1;startSize=30;horizontalStack=0;rounded=1;fontSize=14;fontStyle=0;strokeWidth=2;resizeParent=0;resizeLast=1;shadow=0;dashed=0;align=center;" vertex="1" parent="5Gi5aDpOh4KmLfHU4TaB-1">
          <mxGeometry x="360" y="690" width="160" height="120" as="geometry" />
        </mxCell>
        <mxCell id="5Gi5aDpOh4KmLfHU4TaB-10" value="+Attribute1&#xa;+Attribute2&#xa;+Attribute3" style="align=left;strokeColor=none;fillColor=none;spacingLeft=4;fontSize=12;verticalAlign=top;resizable=0;rotatable=0;part=1;" vertex="1" parent="5Gi5aDpOh4KmLfHU4TaB-9">
          <mxGeometry y="30" width="160" height="90" as="geometry" />
        </mxCell>
        <mxCell id="5Gi5aDpOh4KmLfHU4TaB-11" value="User" style="swimlane;childLayout=stackLayout;horizontal=1;startSize=30;horizontalStack=0;rounded=1;fontSize=14;fontStyle=0;strokeWidth=2;resizeParent=0;resizeLast=1;shadow=0;dashed=0;align=center;" vertex="1" parent="5Gi5aDpOh4KmLfHU4TaB-1">
          <mxGeometry x="640" y="690" width="160" height="120" as="geometry" />
        </mxCell>
        <mxCell id="5Gi5aDpOh4KmLfHU4TaB-12" value="+Attribute1&#xa;+Attribute2&#xa;+Attribute3" style="align=left;strokeColor=none;fillColor=none;spacingLeft=4;fontSize=12;verticalAlign=top;resizable=0;rotatable=0;part=1;" vertex="1" parent="5Gi5aDpOh4KmLfHU4TaB-11">
          <mxGeometry y="30" width="160" height="90" as="geometry" />
        </mxCell>
        <mxCell id="5Gi5aDpOh4KmLfHU4TaB-13" value="Project" style="swimlane;childLayout=stackLayout;horizontal=1;startSize=30;horizontalStack=0;rounded=1;fontSize=14;fontStyle=0;strokeWidth=2;resizeParent=0;resizeLast=1;shadow=0;dashed=0;align=center;" vertex="1" parent="5Gi5aDpOh4KmLfHU4TaB-1">
          <mxGeometry x="360" y="870" width="160" height="120" as="geometry" />
        </mxCell>
        <mxCell id="5Gi5aDpOh4KmLfHU4TaB-14" value="+Attribute1&#xa;+Attribute2&#xa;+Attribute3" style="align=left;strokeColor=none;fillColor=none;spacingLeft=4;fontSize=12;verticalAlign=top;resizable=0;rotatable=0;part=1;" vertex="1" parent="5Gi5aDpOh4KmLfHU4TaB-13">
          <mxGeometry y="30" width="160" height="90" as="geometry" />
        </mxCell>
        <mxCell id="5Gi5aDpOh4KmLfHU4TaB-15" style="edgeStyle=orthogonalEdgeStyle;rounded=0;orthogonalLoop=1;jettySize=auto;html=1;exitX=0;exitY=0.75;exitDx=0;exitDy=0;entryX=0.75;entryY=0;entryDx=0;entryDy=0;startArrow=ERzeroToOne;startFill=0;endArrow=ERzeroToOne;endFill=0;" edge="1" parent="5Gi5aDpOh4KmLfHU4TaB-1" source="5Gi5aDpOh4KmLfHU4TaB-5" target="5Gi5aDpOh4KmLfHU4TaB-2">
          <mxGeometry relative="1" as="geometry" />
        </mxCell>
        <mxCell id="5Gi5aDpOh4KmLfHU4TaB-16" style="edgeStyle=orthogonalEdgeStyle;rounded=0;orthogonalLoop=1;jettySize=auto;html=1;exitX=1;exitY=0.25;exitDx=0;exitDy=0;entryX=0;entryY=0.25;entryDx=0;entryDy=0;startArrow=ERzeroToOne;startFill=0;endArrow=ERzeroToMany;endFill=0;" edge="1" parent="5Gi5aDpOh4KmLfHU4TaB-1" source="5Gi5aDpOh4KmLfHU4TaB-3" target="5Gi5aDpOh4KmLfHU4TaB-7">
          <mxGeometry relative="1" as="geometry" />
        </mxCell>
        <mxCell id="5Gi5aDpOh4KmLfHU4TaB-17" style="edgeStyle=orthogonalEdgeStyle;rounded=0;orthogonalLoop=1;jettySize=auto;html=1;exitX=0.5;exitY=0;exitDx=0;exitDy=0;entryX=0.5;entryY=1;entryDx=0;entryDy=0;startArrow=ERzeroToMany;startFill=0;endArrow=ERoneToMany;endFill=0;" edge="1" parent="5Gi5aDpOh4KmLfHU4TaB-1" source="5Gi5aDpOh4KmLfHU4TaB-13" target="5Gi5aDpOh4KmLfHU4TaB-10">
          <mxGeometry relative="1" as="geometry" />
        </mxCell>
        <mxCell id="5Gi5aDpOh4KmLfHU4TaB-18" style="edgeStyle=orthogonalEdgeStyle;rounded=0;orthogonalLoop=1;jettySize=auto;html=1;exitX=1;exitY=0.75;exitDx=0;exitDy=0;entryX=0;entryY=0.25;entryDx=0;entryDy=0;startArrow=ERzeroToMany;startFill=0;endArrow=ERzeroToOne;endFill=0;" edge="1" parent="5Gi5aDpOh4KmLfHU4TaB-1" source="5Gi5aDpOh4KmLfHU4TaB-3" target="5Gi5aDpOh4KmLfHU4TaB-14">
          <mxGeometry relative="1" as="geometry">
            <Array as="points">
              <mxPoint x="280" y="458" />
              <mxPoint x="280" y="923" />
            </Array>
          </mxGeometry>
        </mxCell>
        <mxCell id="5Gi5aDpOh4KmLfHU4TaB-19" style="edgeStyle=orthogonalEdgeStyle;rounded=0;orthogonalLoop=1;jettySize=auto;html=1;exitX=1;exitY=0.25;exitDx=0;exitDy=0;entryX=0;entryY=0.25;entryDx=0;entryDy=0;startArrow=ERmandOne;startFill=0;endArrow=ERzeroToOne;endFill=0;" edge="1" parent="5Gi5aDpOh4KmLfHU4TaB-1" source="5Gi5aDpOh4KmLfHU4TaB-10" target="5Gi5aDpOh4KmLfHU4TaB-12">
          <mxGeometry relative="1" as="geometry" />
        </mxCell>
        <mxCell id="5Gi5aDpOh4KmLfHU4TaB-20" value="ERD if Data Request (DR) and Project are the controlling entities in the system.&amp;nbsp; Assumed that DR creation is entry point for most/all use cases, but Project can be created with Personnel (and other not-shown entities, like Assets).&lt;br&gt;&lt;br&gt;Protocol and Cohorts are ONLY linked to the DR.&amp;nbsp; Personnel is tied to a Project and Data Request. Projects can contain multiple DRs, but do not directly contain Protocols or Cohorts.&lt;br&gt;&lt;br&gt;Added Assets to be tied to DR and Project&lt;br&gt;" style="text;html=1;strokeColor=none;fillColor=none;align=left;verticalAlign=top;whiteSpace=wrap;rounded=0;" vertex="1" parent="5Gi5aDpOh4KmLfHU4TaB-1">
          <mxGeometry x="620" y="180" width="170" height="300" as="geometry" />
        </mxCell>
        <mxCell id="5Gi5aDpOh4KmLfHU4TaB-21" value="Data_Request_Access" style="swimlane;childLayout=stackLayout;horizontal=1;startSize=30;horizontalStack=0;rounded=1;fontSize=14;fontStyle=0;strokeWidth=2;resizeParent=0;resizeLast=1;shadow=0;dashed=0;align=center;" vertex="1" parent="5Gi5aDpOh4KmLfHU4TaB-1">
          <mxGeometry x="360" y="510" width="160" height="120" as="geometry" />
        </mxCell>
        <mxCell id="5Gi5aDpOh4KmLfHU4TaB-22" value="+Attribute1&#xa;+Attribute2&#xa;+Attribute3" style="align=left;strokeColor=none;fillColor=none;spacingLeft=4;fontSize=12;verticalAlign=top;resizable=0;rotatable=0;part=1;" vertex="1" parent="5Gi5aDpOh4KmLfHU4TaB-21">
          <mxGeometry y="30" width="160" height="90" as="geometry" />
        </mxCell>
        <mxCell id="5Gi5aDpOh4KmLfHU4TaB-23" style="edgeStyle=orthogonalEdgeStyle;rounded=0;orthogonalLoop=1;jettySize=auto;html=1;exitX=1;exitY=0.5;exitDx=0;exitDy=0;entryX=0;entryY=0.25;entryDx=0;entryDy=0;startArrow=ERmandOne;startFill=0;endArrow=ERzeroToMany;endFill=0;" edge="1" parent="5Gi5aDpOh4KmLfHU4TaB-1" source="5Gi5aDpOh4KmLfHU4TaB-3" target="5Gi5aDpOh4KmLfHU4TaB-22">
          <mxGeometry relative="1" as="geometry">
            <Array as="points">
              <mxPoint x="320" y="435" />
              <mxPoint x="320" y="563" />
            </Array>
          </mxGeometry>
        </mxCell>
        <mxCell id="lTWYkj-sbMYrGUPKP9Wx-2" style="edgeStyle=orthogonalEdgeStyle;rounded=0;orthogonalLoop=1;jettySize=auto;html=1;exitX=0.5;exitY=0;exitDx=0;exitDy=0;entryX=0.5;entryY=1;entryDx=0;entryDy=0;startArrow=ERzeroToMany;startFill=0;endArrow=ERzeroToMany;endFill=0;" edge="1" parent="5Gi5aDpOh4KmLfHU4TaB-1" source="lTWYkj-sbMYrGUPKP9Wx-0" target="5Gi5aDpOh4KmLfHU4TaB-3">
          <mxGeometry relative="1" as="geometry" />
        </mxCell>
        <mxCell id="lTWYkj-sbMYrGUPKP9Wx-0" value="Asset" style="swimlane;childLayout=stackLayout;horizontal=1;startSize=30;horizontalStack=0;rounded=1;fontSize=14;fontStyle=0;strokeWidth=2;resizeParent=0;resizeLast=1;shadow=0;dashed=0;align=center;" vertex="1" parent="5Gi5aDpOh4KmLfHU4TaB-1">
          <mxGeometry x="80" y="870" width="160" height="120" as="geometry" />
        </mxCell>
        <mxCell id="lTWYkj-sbMYrGUPKP9Wx-1" value="+Attribute1&#xa;+Attribute2&#xa;+Attribute3" style="align=left;strokeColor=none;fillColor=none;spacingLeft=4;fontSize=12;verticalAlign=top;resizable=0;rotatable=0;part=1;" vertex="1" parent="lTWYkj-sbMYrGUPKP9Wx-0">
          <mxGeometry y="30" width="160" height="90" as="geometry" />
        </mxCell>
        <mxCell id="lTWYkj-sbMYrGUPKP9Wx-3" style="edgeStyle=orthogonalEdgeStyle;rounded=0;orthogonalLoop=1;jettySize=auto;html=1;exitX=1;exitY=0.75;exitDx=0;exitDy=0;entryX=0;entryY=0.75;entryDx=0;entryDy=0;startArrow=ERzeroToMany;startFill=0;endArrow=ERzeroToMany;endFill=0;" edge="1" parent="5Gi5aDpOh4KmLfHU4TaB-1" source="lTWYkj-sbMYrGUPKP9Wx-1" target="5Gi5aDpOh4KmLfHU4TaB-14">
          <mxGeometry relative="1" as="geometry" />
        </mxCell>
      </root>
    </mxGraphModel>
  </diagram>
</mxfile>
